<svg width="25" height="25" viewBox="0 0 25 25" fill="none" xmlns="http://www.w3.org/2000/svg">
<mask id="mask0_2312_19" style="mask-type:alpha" maskUnits="userSpaceOnUse" x="0" y="0" width="25" height="25">
<rect x="0.249023" y="0.0716553" width="24" height="24" fill="#D9D9D9"/>
</mask>
<g mask="url(#mask0_2312_19)">
<path d="M12.249 16.0717C13.499 16.0717 14.5615 15.6342 15.4365 14.7592C16.3115 13.8842 16.749 12.8217 16.749 11.5717C16.749 10.3217 16.3115 9.25916 15.4365 8.38416C14.5615 7.50916 13.499 7.07166 12.249 7.07166C10.999 7.07166 9.93652 7.50916 9.06152 8.38416C8.18652 9.25916 7.74902 10.3217 7.74902 11.5717C7.74902 12.8217 8.18652 13.8842 9.06152 14.7592C9.93652 15.6342 10.999 16.0717 12.249 16.0717ZM12.249 14.2717C11.499 14.2717 10.8615 14.0092 10.3365 13.4842C9.81152 12.9592 9.54902 12.3217 9.54902 11.5717C9.54902 10.8217 9.81152 10.1842 10.3365 9.65916C10.8615 9.13416 11.499 8.87166 12.249 8.87166C12.999 8.87166 13.6365 9.13416 14.1615 9.65916C14.6865 10.1842 14.949 10.8217 14.949 11.5717C14.949 12.3217 14.6865 12.9592 14.1615 13.4842C13.6365 14.0092 12.999 14.2717 12.249 14.2717ZM12.249 19.0717C9.81569 19.0717 7.59902 18.3925 5.59902 17.0342C3.59902 15.6758 2.14902 13.855 1.24902 11.5717C2.14902 9.28832 3.59902 7.46749 5.59902 6.10916C7.59902 4.75082 9.81569 4.07166 12.249 4.07166C14.6824 4.07166 16.899 4.75082 18.899 6.10916C20.899 7.46749 22.349 9.28832 23.249 11.5717C22.349 13.855 20.899 15.6758 18.899 17.0342C16.899 18.3925 14.6824 19.0717 12.249 19.0717ZM12.249 17.0717C14.1324 17.0717 15.8615 16.5758 17.4365 15.5842C19.0115 14.5925 20.2157 13.255 21.049 11.5717C20.2157 9.88832 19.0115 8.55082 17.4365 7.55916C15.8615 6.56749 14.1324 6.07166 12.249 6.07166C10.3657 6.07166 8.63652 6.56749 7.06152 7.55916C5.48652 8.55082 4.28236 9.88832 3.44902 11.5717C4.28236 13.255 5.48652 14.5925 7.06152 15.5842C8.63652 16.5758 10.3657 17.0717 12.249 17.0717Z" fill="#1C1B1F"/>
</g>
</svg>
